_________________________  Visit us at _________________________
  
http://p2pdl.com  ____________________________  http://p2pdl.com

 
http://www.shotpix.com/images/44893862151431844917.jpg


Little Mix - Change Your Life M4A+MP4 (1080p) x264 [VX] [P2PDL]


                           1080p Full HD MP4 Video
                                     +
                           128 Kbps/VBR M4A Audio

General
Format                         : MPEG-4
Format profile                 : Base Media / Version 2
Codec ID                       : mp42
File size                      : 38.1 MiB
Duration                       : 3mn 21s

Video
ID                             : 1
Format                         : AVC
Format/Info                    : Advanced Video Codec
Width                          : 1 920 pixels
Height                         : 752 pixels
Display aspect ratio           : 2.553
Frame rate mode                : Constant
Frame rate                     : 25.000 fps
Bits/(Pixel*Frame)             : 0.040
Stream size                    : 34.9 MiB (92%)
Writing library                : x264 core 129

Audio
ID                             : 2
Format                         : AAC
Format/Info                    : Advanced Audio Codec
Format profile                 : LC
Codec ID                       : 40
Duration                       : 3mn 21s
Bit rate mode                  : Variable
Bit rate                       : 128 Kbps
Channel(s)                     : 2 channels
Channel positions              : Front: L R
Sampling rate                  : 48.0 KHz
Stream size                    : 3.07 MiB (8%)

Subtitles                      : No

Screens:
 
http://www.shotpix.com/images/64609810656487099997.jpg 
http://www.shotpix.com/images/17149154039837600703.jpg 
http://www.shotpix.com/images/43844395252060722026.jpg

Thumbs:
 
http://www.shotpix.com/images/32380298133887882280.jpg

------------------------------------------------------------------------

Notes:

* Recommended to use latest version VLC Media Player.
* Install shark007 codecs in case of any kind of problem in playback (For non-VLC Media Player users).
* Alternatively, install Core AVC codecs, the fastest decoder that there is coupled with Community Center Codec Pack and play on Windows Media Player Classic.

Greets to: VYTO, a2zRG, MusiK_KinG, Kuroyukihime, Caveman, Ash968, Neon, Masta, TorDigger and staff members at ExtraTorrent, TPB, H33T, KAT, 1337x, PublicHD, Ahashare, TorrentMafia, Limetorrents, BTScene, P2PDL, and all others

Encoder Notes: Looking For Early Access To Anything You Can Provide DVDScr, R5, DVDRips, BluRay, Direct Audio, Early Music
Releases, Seedboxes, Links, Dedicated Servers anything u can provide, Advance / Promo CDs/DVDs. If You Got anything to
offer contact me at "prg@hush.com".